<svg width="24" height="24" viewBox="0 0 24 24" fill="none" xmlns="http://www.w3.org/2000/svg">
<path d="M7.93967 2.45407C7.65846 2.73536 7.50049 3.11683 7.50049 3.51457C7.50049 3.91232 7.65846 4.29378 7.93967 4.57507L15.3647 12.0001L7.93967 19.4251C7.66643 19.708 7.51524 20.0869 7.51866 20.4802C7.52207 20.8735 7.67983 21.2497 7.95794 21.5278C8.23605 21.8059 8.61227 21.9637 9.00557 21.9671C9.39886 21.9705 9.77776 21.8193 10.0607 21.5461L18.5462 13.0606C18.8274 12.7793 18.9853 12.3978 18.9853 12.0001C18.9853 11.6023 18.8274 11.2209 18.5462 10.9396L10.0607 2.45407C9.77938 2.17287 9.39791 2.01489 9.00017 2.01489C8.60242 2.01489 8.22096 2.17287 7.93967 2.45407Z" fill="white"/>
</svg>
