<svg width="20" height="20" viewBox="0 0 20 20" fill="none" xmlns="http://www.w3.org/2000/svg">
<g id="icomoon-free:attachment" clip-path="url(#clip0_2036_75)">
<path id="Vector" d="M13.0048 6.38752L11.7361 5.12002L5.39232 11.4625C5.14248 11.7124 4.94432 12.0091 4.80914 12.3356C4.67395 12.6621 4.60441 13.0121 4.60447 13.3655C4.60452 13.7188 4.67419 14.0688 4.80947 14.3952C4.94476 14.7217 5.14303 15.0183 5.39295 15.2681C5.64287 15.518 5.93956 15.7162 6.26606 15.8513C6.59257 15.9865 6.94251 16.0561 7.29589 16.056C7.64928 16.0559 7.99919 15.9863 8.32565 15.851C8.65211 15.7157 8.94873 15.5174 9.19857 15.2675L16.8111 7.65627C17.6521 6.81504 18.1246 5.67415 18.1245 4.48458C18.1243 3.29501 17.6517 2.15422 16.8104 1.31315C15.9692 0.47208 14.8283 -0.000361329 13.6388 -0.000244119C12.4492 -0.000126909 11.3084 0.472539 10.4673 1.31377L2.47482 9.30502L2.45732 9.32127C0.0135742 11.765 0.0135742 15.725 2.45732 18.1675C4.90107 20.61 8.86107 20.61 11.3048 18.1675L11.3211 18.15L11.3223 18.1513L16.7786 12.6963L15.5098 11.4288L10.0536 16.8825L10.0373 16.8988C9.19999 17.7345 8.06532 18.2038 6.88232 18.2038C5.69933 18.2038 4.56465 17.7345 3.72732 16.8988C3.31228 16.4828 2.98341 15.989 2.75959 15.4457C2.53577 14.9024 2.4214 14.3202 2.42302 13.7326C2.42465 13.145 2.54224 12.5635 2.76907 12.0215C2.99589 11.4794 3.32748 10.9874 3.74482 10.5738L3.74357 10.5725L11.7373 2.58127C12.7861 1.53127 14.4936 1.53127 15.5436 2.58127C16.5936 3.63127 16.5923 5.33752 15.5436 6.38627L7.93107 13.9975C7.76071 14.1542 7.53639 14.239 7.30497 14.2343C7.07355 14.2295 6.85292 14.1355 6.68916 13.9719C6.52541 13.8083 6.43119 13.5878 6.42619 13.3564C6.42119 13.1249 6.50579 12.9005 6.66232 12.73L13.0061 6.38627L13.0048 6.38752Z" fill="white"/>
</g>
<defs>
<clipPath id="clip0_2036_75">
<rect width="20" height="20" fill="white"/>
</clipPath>
</defs>
</svg>
