<svg width="66" height="58" viewBox="0 0 66 58" fill="none" xmlns="http://www.w3.org/2000/svg">
<g id="elements">
<path id="Vector" d="M49.8895 20.7841C49.9125 20.784 49.9356 20.7839 49.9587 20.7839C57.6216 20.7839 63.8337 27.0074 63.8337 34.6844C63.8337 41.8393 58.4378 47.7317 51.5003 48.5M49.8895 20.7841C49.9353 20.2754 49.9587 19.7601 49.9587 19.2394C49.9587 9.85643 42.3662 2.25 33.0003 2.25C24.1303 2.25 16.8508 9.0724 16.105 17.7651M49.8895 20.7841C49.5743 24.2884 48.1969 27.4859 46.0824 30.0509M16.105 17.7651C8.28427 18.5107 2.16699 25.1096 2.16699 33.1399C2.16699 40.612 7.46342 46.8448 14.5003 48.2759M16.105 17.7651C16.5916 17.7187 17.0849 17.6949 17.5837 17.6949C21.055 17.6949 24.2583 18.8443 26.8352 20.7839" stroke="white" stroke-width="3" stroke-linejoin="round"/>
<path id="Vector_2" d="M33 33.0833L33 57.7499M33 33.0833L23.75 42.3333M33 33.0833L42.25 42.3333" stroke="white" stroke-width="3"/>
</g>
</svg>
