<svg width="32" height="32" viewBox="0 0 32 32" fill="none" xmlns="http://www.w3.org/2000/svg">
<g id="iconamoon:invoice-fill">
<path id="Vector" fill-rule="evenodd" clip-rule="evenodd" d="M5.3335 4.00008C5.3335 3.64646 5.47397 3.30732 5.72402 3.05727C5.97407 2.80722 6.31321 2.66675 6.66683 2.66675H25.3335C25.6871 2.66675 26.0263 2.80722 26.2763 3.05727C26.5264 3.30732 26.6668 3.64646 26.6668 4.00008V28.0001C26.6668 28.255 26.5938 28.5045 26.4564 28.7192C26.3189 28.9338 26.1228 29.1046 25.8913 29.2112C25.6598 29.3178 25.4026 29.3559 25.1501 29.3208C24.8977 29.2858 24.6605 29.1791 24.4668 29.0134L23.0895 27.8334C22.8479 27.6265 22.5403 27.5128 22.2222 27.5128C21.9041 27.5128 21.5964 27.6265 21.3548 27.8334L19.9788 29.0121C19.7371 29.2194 19.4292 29.3333 19.1108 29.3333C18.7924 29.3333 18.4845 29.2194 18.2428 29.0121L16.8682 27.8334C16.6265 27.6261 16.3186 27.5122 16.0002 27.5122C15.6818 27.5122 15.3739 27.6261 15.1322 27.8334L13.7575 29.0121C13.5158 29.2194 13.2079 29.3333 12.8895 29.3333C12.5711 29.3333 12.2632 29.2194 12.0215 29.0121L10.6455 27.8334C10.4039 27.6265 10.0963 27.5128 9.77816 27.5128C9.46006 27.5128 9.15243 27.6265 8.91083 27.8334L7.53483 29.0121C7.34125 29.1781 7.10412 29.2851 6.85156 29.3205C6.599 29.3558 6.34161 29.3179 6.1099 29.2114C5.87819 29.1049 5.68189 28.9342 5.54428 28.7195C5.40667 28.5048 5.33352 28.2551 5.3335 28.0001V4.00008ZM12.0002 8.00008C11.6465 8.00008 11.3074 8.14056 11.0574 8.39061C10.8073 8.64065 10.6668 8.97979 10.6668 9.33341C10.6668 9.68704 10.8073 10.0262 11.0574 10.2762C11.3074 10.5263 11.6465 10.6667 12.0002 10.6667H20.0002C20.3538 10.6667 20.6929 10.5263 20.943 10.2762C21.193 10.0262 21.3335 9.68704 21.3335 9.33341C21.3335 8.97979 21.193 8.64065 20.943 8.39061C20.6929 8.14056 20.3538 8.00008 20.0002 8.00008H12.0002ZM12.0002 13.3334C11.6465 13.3334 11.3074 13.4739 11.0574 13.7239C10.8073 13.974 10.6668 14.3131 10.6668 14.6667C10.6668 15.0204 10.8073 15.3595 11.0574 15.6096C11.3074 15.8596 11.6465 16.0001 12.0002 16.0001H20.0002C20.3538 16.0001 20.6929 15.8596 20.943 15.6096C21.193 15.3595 21.3335 15.0204 21.3335 14.6667C21.3335 14.3131 21.193 13.974 20.943 13.7239C20.6929 13.4739 20.3538 13.3334 20.0002 13.3334H12.0002ZM13.3335 20.0001C13.3335 19.6465 13.474 19.3073 13.724 19.0573C13.9741 18.8072 14.3132 18.6667 14.6668 18.6667H20.0002C20.3538 18.6667 20.6929 18.8072 20.943 19.0573C21.193 19.3073 21.3335 19.6465 21.3335 20.0001C21.3335 20.3537 21.193 20.6928 20.943 20.9429C20.6929 21.1929 20.3538 21.3334 20.0002 21.3334H14.6668C14.3132 21.3334 13.9741 21.1929 13.724 20.9429C13.474 20.6928 13.3335 20.3537 13.3335 20.0001Z" fill="white"/>
</g>
</svg>
