<svg width="32" height="32" viewBox="0 0 32 32" fill="none" xmlns="http://www.w3.org/2000/svg">
<g id="bx:scan">
<path id="Vector" d="M3.99984 5.33333V12H6.6665V6.66667H11.9998V4H5.33317C4.97955 4 4.64041 4.14048 4.39036 4.39052C4.14031 4.64057 3.99984 4.97971 3.99984 5.33333ZM27.9998 12V5.33333C27.9998 4.97971 27.8594 4.64057 27.6093 4.39052C27.3593 4.14048 27.0201 4 26.6665 4H19.9998V6.66667H25.3332V12H27.9998ZM25.3332 25.3333H19.9998V28H26.6665C27.0201 28 27.3593 27.8595 27.6093 27.6095C27.8594 27.3594 27.9998 27.0203 27.9998 26.6667V20H25.3332V25.3333ZM11.9998 28V25.3333H6.6665V20H3.99984V26.6667C3.99984 27.0203 4.14031 27.3594 4.39036 27.6095C4.64041 27.8595 4.97955 28 5.33317 28H11.9998ZM2.6665 14.6667H29.3332V17.3333H2.6665V14.6667Z" fill="white"/>
</g>
</svg>
