<svg width="20" height="20" viewBox="0 0 20 20" fill="none" xmlns="http://www.w3.org/2000/svg">
<g id="teenyicons:send-solid" clip-path="url(#clip0_2001_84)">
<path id="Vector" d="M19.9384 0.946725C19.9056 1.01808 19.8605 1.08308 19.8051 1.13873L7.19974 13.7414L10.7597 19.6761C10.8228 19.7816 10.9138 19.8677 11.0227 19.9247C11.1317 19.9817 11.2542 20.0075 11.3769 19.9993C11.4996 19.991 11.6176 19.9489 11.7179 19.8778C11.8181 19.8066 11.8968 19.7091 11.9451 19.5961L19.9384 0.946725ZM6.2584 12.8001L0.323738 9.23739C0.218192 9.17433 0.132142 9.0833 0.0751031 8.97438C0.018064 8.86546 -0.00774252 8.74289 0.000536876 8.62021C0.00881628 8.49754 0.050859 8.37955 0.122017 8.27928C0.193174 8.17901 0.290675 8.10037 0.403738 8.05206L19.0571 0.0600586C18.9847 0.0929761 18.9187 0.138584 18.8624 0.194725L6.2584 12.8001Z" fill="white"/>
</g>
<defs>
<clipPath id="clip0_2001_84">
<rect width="20" height="20" fill="white"/>
</clipPath>
</defs>
</svg>
