<svg width="24" height="24" viewBox="0 0 24 24" fill="none" xmlns="http://www.w3.org/2000/svg">
<g clip-path="url(#clip0_2001_65)">
<path d="M23.9263 1.13602C23.8869 1.22165 23.8328 1.29964 23.7663 1.36642L8.63988 16.4896L12.9119 23.6112C12.9876 23.7379 13.0968 23.8411 13.2275 23.9096C13.3582 23.978 13.5053 24.009 13.6525 23.9991C13.7997 23.9891 13.9413 23.9387 14.0616 23.8533C14.1819 23.7679 14.2763 23.6509 14.3343 23.5152L23.9263 1.13602ZM7.51028 15.36L0.388681 11.0848C0.262025 11.0091 0.158766 10.8999 0.090319 10.7692C0.0218721 10.6385 -0.00909572 10.4914 0.000839564 10.3442C0.0107748 10.197 0.0612262 10.0554 0.146615 9.93508C0.232004 9.81476 0.349005 9.7204 0.484681 9.66242L22.8687 0.0720215C22.7818 0.111523 22.7027 0.166252 22.6351 0.233621L7.51028 15.36Z" fill="#14F195"/>
</g>
<defs>
<clipPath id="clip0_2001_65">
<rect width="24" height="24" fill="white"/>
</clipPath>
</defs>
</svg>
