<svg width="32" height="32" viewBox="0 0 32 32" fill="none" xmlns="http://www.w3.org/2000/svg">
<g id="material-symbols:settings">
<path id="Vector" d="M12.3334 29.3334L11.8001 25.0667C11.5112 24.9556 11.2392 24.8223 10.9841 24.6667C10.729 24.5112 10.4788 24.3445 10.2334 24.1667L6.26676 25.8334L2.6001 19.5001L6.03343 16.9001C6.01121 16.7445 6.0001 16.5947 6.0001 16.4507V15.5507C6.0001 15.4059 6.01121 15.2556 6.03343 15.1001L2.6001 12.5001L6.26676 6.16675L10.2334 7.83341C10.4779 7.65564 10.7334 7.48897 11.0001 7.33341C11.2668 7.17786 11.5334 7.04453 11.8001 6.93341L12.3334 2.66675H19.6668L20.2001 6.93341C20.489 7.04453 20.7614 7.17786 21.0174 7.33341C21.2734 7.48897 21.5232 7.65564 21.7668 7.83341L25.7334 6.16675L29.4001 12.5001L25.9668 15.1001C25.989 15.2556 26.0001 15.4059 26.0001 15.5507V16.4494C26.0001 16.5943 25.9779 16.7445 25.9334 16.9001L29.3668 19.5001L25.7001 25.8334L21.7668 24.1667C21.5223 24.3445 21.2668 24.5112 21.0001 24.6667C20.7334 24.8223 20.4668 24.9556 20.2001 25.0667L19.6668 29.3334H12.3334ZM16.0668 20.6667C17.3557 20.6667 18.4557 20.2112 19.3668 19.3001C20.2779 18.389 20.7334 17.289 20.7334 16.0001C20.7334 14.7112 20.2779 13.6112 19.3668 12.7001C18.4557 11.789 17.3557 11.3334 16.0668 11.3334C14.7557 11.3334 13.6499 11.789 12.7494 12.7001C11.849 13.6112 11.3992 14.7112 11.4001 16.0001C11.4001 17.289 11.8503 18.389 12.7508 19.3001C13.6512 20.2112 14.7565 20.6667 16.0668 20.6667Z" fill="white"/>
</g>
</svg>
