<svg width="32" height="32" viewBox="0 0 32 32" fill="none" xmlns="http://www.w3.org/2000/svg">
<g id="fluent:pen-48-filled">
<path id="Vector" d="M21.4705 4.01679C21.8965 3.58227 22.4044 3.2365 22.9649 2.99947C23.5253 2.76243 24.1272 2.63882 24.7357 2.6358C25.3442 2.63277 25.9473 2.75039 26.51 2.98184C27.0728 3.21329 27.5841 3.55399 28.0144 3.98425C28.4447 4.41451 28.7855 4.92579 29.017 5.48853C29.2485 6.05128 29.3662 6.65433 29.3632 7.26283C29.3602 7.87133 29.2367 8.47321 28.9997 9.03367C28.7627 9.59414 28.417 10.1021 27.9825 10.5281L26.4932 12.0188L27.1165 12.6841C27.6197 13.2208 27.8944 13.9321 27.8826 14.6676C27.8708 15.4031 27.5734 16.1053 27.0532 16.6255L24.7559 18.9228C24.5996 19.0791 24.3876 19.1669 24.1665 19.1669C23.9455 19.1669 23.7335 19.0791 23.5772 18.9228C23.4209 18.7665 23.3331 18.5545 23.3331 18.3335C23.3331 18.1124 23.4209 17.9004 23.5772 17.7441L25.8745 15.4468C26.0889 15.2326 26.2116 14.9435 26.2166 14.6405C26.2215 14.3375 26.1085 14.0445 25.9012 13.8235L25.3139 13.1975L11.8705 26.6428C11.3624 27.1509 10.7268 27.5129 10.0305 27.6908L3.70655 29.3075C3.56636 29.3433 3.41925 29.3421 3.27968 29.3039C3.14011 29.2657 3.01291 29.1917 2.91058 29.0894C2.80826 28.9871 2.73434 28.8599 2.69611 28.7203C2.65788 28.5808 2.65665 28.4336 2.69255 28.2935L4.31055 21.9701C4.48868 21.2743 4.85066 20.6393 5.35855 20.1315L21.4705 4.01679Z" fill="white"/>
</g>
</svg>
