<svg width="24" height="24" viewBox="0 0 24 24" fill="none" xmlns="http://www.w3.org/2000/svg">
<g id="humbleicons:upload">
<path id="Vector" d="M11.9998 10.0001V19.0001M11.9998 10.0001L14.9998 13.0001M11.9998 10.0001L8.99977 13.0001M17.4998 15.0001C19.0188 15.0001 19.9998 13.7691 19.9998 12.2501C19.9997 11.6487 19.8025 11.0639 19.4384 10.5853C19.0743 10.1066 18.5633 9.76058 17.9838 9.60006C17.8946 8.47852 17.4298 7.41983 16.6645 6.59516C15.8991 5.77048 14.878 5.22803 13.7663 5.05549C12.6545 4.88295 11.517 5.09042 10.5378 5.64435C9.55849 6.19828 8.79467 7.0663 8.36977 8.10806C7.4752 7.86009 6.51875 7.97763 5.71085 8.43485C4.90294 8.89206 4.30975 9.65149 4.06177 10.5461C3.81379 11.4406 3.93134 12.3971 4.38856 13.205C4.84577 14.0129 5.6052 14.6061 6.49977 14.8541" stroke="white" stroke-opacity="0.7" stroke-width="1.5" stroke-linecap="round" stroke-linejoin="round"/>
</g>
</svg>
